<svg width="411" height="127" viewBox="0 0 411 127" fill="none" xmlns="http://www.w3.org/2000/svg">
<g clip-path="url(#clip0_371_205)">
<path d="M282.12 120.49H213.52V111.92H230.67V9.02H213.52V0.440002H282.12V9.02H264.97V111.92H282.12V120.49Z" fill="#FFFFFF"/>
<path d="M316.41 86.19V94.77H307.84V111.92H316.41V120.49H282.11V111.92H290.68V103.34H299.25V86.19H307.82V69.04H316.39V51.89H324.96V34.74H333.53V9.02H342.1V0.440002H350.67V9.02H359.24V26.17H367.81V43.32H376.38V60.47H384.95V86.19H393.52V103.34H402.09V111.92H410.66V120.49H359.21V111.92H367.78V103.34H359.21V86.19H316.34H316.41ZM350.71 77.62V60.47H342.14V34.75H333.57V51.9H325V69.05H316.43V77.63H350.73L350.71 77.62Z" fill="#FFFFFF"/>
<path d="M20.73 78.26H0.25V76.13L1.97 75.97C5.17 75.64 6.72 73.84 6.72 70.48V29.58C6.72 27.37 6.15 26.71 2.95 25.16L0 23.77L14.26 20.08V25.16L11.72 28.68V31.38L13.19 29.17C17.29 23.02 21.63 19.99 26.71 19.99C35.97 19.99 42.61 27.77 42.61 38.51C42.61 50.97 34.17 60.14 22.7 60.14C19.34 60.14 16.55 59.57 14.26 58.42V70.47C14.26 73.83 15.82 75.63 19.01 75.96L20.73 76.12V78.25V78.26ZM14.26 30.9V53.43C16.39 55.4 19.67 56.87 22.54 56.87C29.67 56.87 34.42 50.23 34.42 40.4C34.42 31.47 29.83 25.16 23.19 25.16C19.67 25.16 16.39 27.54 14.26 30.9Z" fill="white"/>
<path d="M59.82 28.68C63.75 23.11 68.67 19.99 73.59 19.99C80.72 19.99 84.9 24.5 84.9 32.2V51.62C84.9 54.98 86.46 56.78 89.65 57.11L91.37 57.27V59.4H71.54V57.27L73.01 57.11C75.96 56.78 77.35 54.98 77.35 51.62V32.77C77.35 27.93 74.65 25.15 69.98 25.15C66.62 25.15 63.18 27.12 60.72 30.39V51.61C60.72 54.97 62.11 56.77 65.06 57.1L66.54 57.26V59.39H46.71V57.26L48.43 57.1C51.63 56.77 53.18 54.97 53.18 51.61V9.18C53.18 6.8 52.36 5.82 49.41 4.67L46.46 3.44L60.72 0V24.91L58.18 28.35V30.89L59.82 28.68Z" fill="white"/>
<path d="M108.66 20.08V51.63C108.66 54.99 110.22 56.79 113.41 57.12L115.13 57.28V59.41H94.6401V57.28L96.3601 57.12C99.5601 56.79 101.11 54.99 101.11 51.63V29.59C101.11 27.38 100.54 26.72 97.3401 25.17L94.3901 23.78L108.65 20.09L108.66 20.08ZM100.79 4.17999H108.82V12.29H100.79V4.17999Z" fill="white"/>
<path d="M121.11 4.67L118.16 3.44L132.42 0V51.62C132.42 54.98 133.98 56.78 137.17 57.11L138.89 57.27V59.4H118.4V57.27L120.12 57.11C123.32 56.78 124.87 54.98 124.87 51.62V9.1C124.87 6.89 124.05 5.9 121.1 4.67H121.11Z" fill="white"/>
<path d="M180.36 39.91C180.36 51.38 172.17 60.31 161.68 60.31C151.19 60.31 143 51.79 143 40.4C143 29.01 151.11 20 161.68 20C172.25 20 180.36 28.52 180.36 39.91ZM151.19 38.93C151.19 49.83 155.45 56.88 162.01 56.88C168.57 56.88 172.17 50.98 172.17 41.39C172.17 30.49 167.83 23.44 161.19 23.44C154.96 23.44 151.19 29.34 151.19 38.93Z" fill="white"/>
<path d="M52.6299 99.17C52.6299 96.22 54.9199 94.58 56.7299 94.58C58.6999 94.58 60.2499 96.14 60.2499 98.68C60.2499 99.09 60.1699 99.5 60.0899 99.99H58.0399C58.0399 103.1 60.0899 105.32 64.5999 105.32C69.5999 105.32 72.1399 102.04 72.1399 98.68C72.1399 96.47 70.7499 94.66 68.7799 92.78L64.1899 88.19C61.3199 85.32 59.6799 82.54 59.6799 79.34C59.6799 73.6 64.3499 68.28 72.2999 68.28C79.1799 68.28 84.1799 72.21 84.1799 77.21C84.1799 79.91 82.6999 81.72 80.1599 81.72C78.1099 81.72 76.4699 80.16 76.4699 77.54C76.4699 77.13 76.5499 76.72 76.6299 76.23H78.6799C78.6799 73.2 76.1399 71.48 72.4499 71.48C68.3499 71.48 65.9799 74.27 65.9799 77.13C65.9799 78.85 66.7999 80 67.8599 81.06L74.7399 88.11C77.1999 90.57 78.9199 93.52 78.9199 96.88C78.9199 103.03 73.3499 108.35 64.6599 108.35C58.1899 108.35 52.6099 104.5 52.6099 99.17H52.6299Z" fill="white"/>
<path d="M123.11 82.78C123.11 96.14 111.88 108.35 100.17 108.35C91.48 108.35 86.73 101.79 86.73 93.68C86.73 80.32 97.87 68.2 109.59 68.2C118.36 68.2 123.11 74.67 123.11 82.79V82.78ZM115.57 80.32C115.57 74.83 113.36 71.63 109.01 71.63C100.08 71.63 94.26 87.53 94.26 96.13C94.26 101.7 96.47 104.9 100.73 104.9C109.74 104.9 115.56 88.92 115.56 80.32H115.57Z" fill="white"/>
<path d="M134.74 104.33L129.25 118.59C128.02 121.95 128.68 123.75 132.2 124.08L133.92 124.24L133.1 126.37H113.02L113.84 124.24L115.48 124.08C118.68 123.75 120.64 121.87 121.87 118.59L137.6 77.62C138.75 74.67 138.34 73.44 136.13 72.29L133.43 70.9L148.75 67.87L146.78 72.95L142.68 78.6L140.39 84.34H140.72C146.37 75 153.34 68.36 159.32 68.36C165.79 68.36 169.73 73.36 169.73 80.73C169.73 93.92 158.01 107.61 145.64 107.61C141.71 107.61 137.69 106.38 134.74 104.33ZM140.97 88.27L136.38 100.15C138.35 102.69 141.71 104.33 145.15 104.33C154.66 104.33 162.03 90.07 162.03 80.07C162.03 75.07 159.57 73.19 157.11 73.19C153.34 73.19 147.11 77.53 140.97 88.27Z" fill="white"/>
<path d="M205.05 103.18C207.34 103.18 210.29 100.72 213.98 96.87L214.64 97.28C209.23 104.41 204.89 108.01 200.46 108.01C196.28 108.01 194.4 104.57 197.02 98.18L205.21 78.1C206.77 74.33 205.29 72.94 202.92 72.94C198.58 72.94 192.68 78.1 186.2 87.61L178.5 107.52H171.21L190.47 58.11C191.62 55.16 191.21 53.93 188.99 52.78L186.29 51.39L201.45 48.77L190.8 75.81L187.77 79.66L185.97 84.25H186.13C193.18 74.17 200.22 68.27 205.8 68.27C212.77 68.27 214.98 72.78 211.95 79.91L204.17 98.43C202.61 102.2 203.51 103.18 205.07 103.18H205.05Z" fill="white"/>
</g>
<defs>
<clipPath id="clip0_371_205">
<rect width="410.73" height="126.37" fill="white"/>
</clipPath>
</defs>
</svg>
