<svg width="264" height="89" viewBox="0 0 264 89" fill="none" xmlns="http://www.w3.org/2000/svg">
<g clip-path="url(#clip0_367_179)">
<path d="M64.2801 0.909973H0.390137V63.42H64.2801V0.909973Z" fill="#DC121B"/>
<path d="M24.3998 22.15C24.3998 15.98 29.3998 10.99 35.5598 10.99C36.3198 10.99 37.0598 11.07 37.7798 11.21L39.2098 9.22998C38.0498 8.89998 36.8298 8.72998 35.5598 8.72998C28.1398 8.72998 22.1298 14.74 22.1298 22.16V38.64C22.0798 41.94 19.3998 44.61 16.0898 44.61C15.3798 44.61 14.6098 44.49 13.9798 44.27L12.5898 46.2C13.6298 46.67 14.8798 46.92 16.0898 46.92C20.6398 46.92 24.2998 43.18 24.3998 38.65V22.17V22.15Z" fill="white"/>
<path d="M35.3401 47.64C34.6901 47.64 34.0601 47.53 33.4801 47.34L32.0801 49.29C33.0801 49.72 34.1901 49.96 35.3501 49.96C39.9601 49.96 43.7001 46.22 43.7001 41.61C43.7001 39.49 42.9101 37.57 41.6101 36.1L40.2101 38.04C40.9501 39.04 41.3901 40.27 41.3901 41.61C41.3901 44.94 38.6901 47.64 35.3601 47.64H35.3401Z" fill="white"/>
<path d="M29.5202 40.03L27.1802 38.35V22.15C27.1802 17.54 30.9502 13.8 35.5702 13.8C40.1902 13.8 43.9202 17.54 43.9202 22.15C43.9202 25.05 42.4502 27.6 40.2002 29.09C39.0202 29.89 37.6202 30.38 36.1202 30.48C35.9402 30.5 35.7502 30.5 35.5702 30.5V28.19C38.9002 28.19 41.6102 25.48 41.6102 22.15C41.6102 18.82 38.9102 16.12 35.5702 16.12C32.2302 16.12 29.5302 18.82 29.5302 22.15V40.03H29.5202Z" fill="white"/>
<path d="M44.7001 31.99C44.1401 32.51 43.5401 32.98 42.9001 33.4C45.1101 35.44 46.5001 38.36 46.5001 41.61C46.5001 47.77 41.5001 52.77 35.3401 52.77C33.5701 52.77 31.9001 52.36 30.4201 51.63L29.0801 53.49C30.9501 54.48 33.0801 55.04 35.3401 55.04C42.7601 55.04 48.7701 49.02 48.7701 41.61C48.7701 37.84 47.2101 34.43 44.7101 31.99H44.7001Z" fill="white"/>
<path opacity="0.5" d="M41.6001 10.15C40.9701 9.82997 40.3101 9.55997 39.6301 9.33997C39.5001 9.29997 39.3601 9.25997 39.2201 9.21997L37.8101 11.21C38.4401 11.34 39.0401 11.52 39.6301 11.74C40.3201 12.01 40.9901 12.35 41.6101 12.75C44.6901 14.74 46.7401 18.2 46.7401 22.14C46.7401 25.48 45.2701 28.48 42.9401 30.53C42.3301 31.07 41.6601 31.54 40.9301 31.94C39.4801 32.74 37.8401 33.21 36.0901 33.29C35.8401 33.27 35.5901 33.25 35.3401 33.25C33.0801 33.25 31.0301 34.15 29.5201 35.62V40.02L27.1801 38.34C27.1801 41.14 26.3101 43.5 24.8401 45.4C24.3301 46.05 23.7501 46.64 23.1201 47.17C21.1901 48.76 18.7201 49.71 16.0201 49.71C14.1801 49.71 12.4501 49.27 10.9301 48.48L9.6001 50.33C11.5101 51.38 13.7001 51.97 16.0301 51.97C19.1301 51.97 21.9801 50.92 24.2501 49.16C25.4801 50.96 27.1401 52.45 29.0801 53.48L30.4201 51.62C28.5801 50.71 27.0301 49.32 25.9301 47.6C26.6301 46.83 27.2401 45.98 27.7501 45.07C28.6201 46.95 30.1601 48.46 32.0701 49.28L33.4701 47.33C31.0501 46.54 29.3001 44.27 29.3001 41.59C29.3001 38.26 32.0001 35.56 35.3301 35.56C37.3201 35.56 39.0901 36.53 40.1901 38.02L41.5901 36.08C41.1501 35.59 40.6601 35.14 40.1201 34.76C41.1001 34.41 42.0401 33.94 42.9001 33.38C43.5401 32.96 44.1401 32.49 44.7001 31.97C47.3401 29.52 48.9901 26.01 48.9901 22.13C48.9901 16.88 45.9801 12.34 41.5901 10.13L41.6001 10.15Z" fill="white"/>
<path opacity="0.5" d="M35.5698 28.18C35.5698 28.18 35.4198 28.18 35.3398 28.18C33.2598 28.18 31.2898 28.65 29.5298 29.5V32.08C31.2598 31.04 33.3198 30.46 35.5698 30.49V28.18Z" fill="white"/>
<path d="M86.0901 4.30001L82.9101 5.11001L83.3201 4.57001V24.25L82.9101 23.67L86.0901 24.42V26.21H77.0801V24.42L80.2301 23.71L79.8601 24.25V4.57001L80.3301 5.15001L77.0801 4.47001V2.68001L86.0901 2.51001V4.30001Z" fill="#393939"/>
<path d="M88.77 26.21V24.42L91.75 23.71L91.28 24.29V10.27L91.75 10.88L88.77 10.17V8.38L93.92 8.14L94.36 11.43L93.92 11.26C95.03 10.13 96.19 9.3 97.43 8.75C98.66 8.21 99.83 7.94 100.93 7.94C102.44 7.94 103.7 8.4 104.69 9.33C105.68 10.26 106.17 11.69 106.15 13.63V24.3L105.78 23.76L108.66 24.44V26.23H100.4V24.44L103.21 23.76L102.77 24.34V14.35C102.77 13.04 102.48 12.08 101.89 11.47C101.3 10.86 100.52 10.56 99.55 10.56C98.78 10.56 97.95 10.77 97.06 11.19C96.17 11.61 95.29 12.25 94.44 13.1L94.68 12.49V24.34L94.31 23.8L97.05 24.44V26.23H88.79L88.77 26.21Z" fill="#393939"/>
<path d="M116.54 26.55C115.23 26.55 114.22 26.15 113.51 25.35C112.8 24.55 112.44 23.35 112.44 21.74V10.09L112.91 10.56H109.52V8.72999L112.97 8.11999L112.43 8.75999V4.25999L115.82 3.67999V8.75999L115.41 8.24999H120.66L120.56 10.55H115.41L115.82 10.08V21.26C115.82 22.21 115.99 22.9 116.34 23.33C116.69 23.76 117.2 23.97 117.88 23.97C118.26 23.97 118.69 23.91 119.15 23.78C119.61 23.65 120.12 23.47 120.66 23.22L121.34 25.15C119.62 26.08 118.02 26.54 116.53 26.54L116.54 26.55Z" fill="#393939"/>
<path d="M130.66 26.55C129.1 26.55 127.73 26.21 126.54 25.52C125.35 24.83 124.43 23.81 123.76 22.47C123.09 21.13 122.76 19.48 122.76 17.54C122.76 15.6 123.1 13.84 123.79 12.41C124.48 10.98 125.46 9.86998 126.74 9.08998C128.01 8.30998 129.51 7.91998 131.23 7.91998C132.95 7.91998 134.23 8.25998 135.28 8.93998C136.33 9.61998 137.11 10.55 137.62 11.73C138.13 12.92 138.38 14.26 138.38 15.78C138.38 16.07 138.37 16.37 138.35 16.66C138.33 16.95 138.29 17.29 138.25 17.68H125.41V15.34H135.2L134.9 15.54C134.92 14.62 134.81 13.77 134.56 13C134.31 12.23 133.89 11.62 133.31 11.15C132.72 10.69 131.94 10.46 130.97 10.46C129.91 10.46 129.03 10.75 128.33 11.32C127.63 11.9 127.11 12.68 126.77 13.67C126.43 14.66 126.26 15.8 126.26 17.09C126.26 18.47 126.45 19.67 126.84 20.7C127.22 21.73 127.81 22.53 128.58 23.1C129.36 23.68 130.32 23.96 131.48 23.96C132.29 23.96 133.18 23.8 134.14 23.49C135.1 23.17 136.09 22.7 137.1 22.07L138.29 23.93C137.03 24.81 135.74 25.47 134.45 25.89C133.15 26.32 131.89 26.53 130.67 26.53L130.66 26.55Z" fill="#393939"/>
<path d="M146.48 24.15L146.18 23.74L148.99 24.42V26.21H140.56V24.42L143.4 23.74L143.1 24.15V2.37L143.37 2.68L140.56 2.04V0.24L146.49 0V24.15H146.48Z" fill="#393939"/>
<path d="M156.5 24.15L156.2 23.74L159.01 24.42V26.21H150.58V24.42L153.42 23.74L153.12 24.15V2.37L153.39 2.68L150.58 2.04V0.24L156.51 0V24.15H156.5Z" fill="#393939"/>
<path d="M166.83 24.15L166.52 23.74L169.37 24.42V26.21H160.94V24.42L163.78 23.74L163.44 24.15V10.5L163.75 10.8L160.94 10.16V8.37L166.83 8.17V24.16V24.15ZM164.97 4.85C164.36 4.85 163.86 4.66 163.46 4.27C163.06 3.88 162.87 3.34 162.87 2.64C162.87 1.94 163.07 1.37 163.48 1C163.89 0.630002 164.39 0.440002 165 0.440002C165.61 0.440002 166.15 0.630002 166.54 1C166.94 1.37 167.13 1.92 167.13 2.64C167.13 3.36 166.92 3.91 166.5 4.28C166.08 4.65 165.57 4.84 164.96 4.84L164.97 4.85Z" fill="#393939"/>
<path d="M178.96 34.34C176.27 34.34 174.26 33.96 172.93 33.21C171.6 32.45 170.93 31.35 170.93 29.91C170.93 28.85 171.29 27.93 172 27.15C172.71 26.37 173.76 25.7 175.13 25.14V25.82C174.36 25.78 173.76 25.6 173.32 25.29C172.88 24.98 172.66 24.56 172.66 24.02C172.66 23.84 172.69 23.65 172.74 23.46C172.8 23.27 172.9 23 173.04 22.66C173.19 22.32 173.4 21.88 173.67 21.34C173.94 20.8 174.29 20.1 174.72 19.24L174.79 19.82C173.77 19.3 173 18.58 172.45 17.67C171.91 16.75 171.64 15.68 171.64 14.44C171.64 12.43 172.31 10.84 173.66 9.68C175 8.52 176.86 7.94 179.23 7.94C180.86 7.94 182.26 8.22 183.43 8.79L182.58 8.62L188 8.38L188.03 10.38L185.05 10.96L185.29 10.49C185.72 10.92 186.05 11.44 186.27 12.07C186.5 12.69 186.61 13.4 186.61 14.19C186.61 16.22 185.92 17.82 184.54 18.98C183.16 20.14 181.33 20.72 179.05 20.72C177.81 20.72 176.65 20.53 175.56 20.14L176.34 19.77L175.56 23.94L174.85 23.6H181.52C183.73 23.6 185.41 24.03 186.55 24.89C187.69 25.75 188.26 26.98 188.26 28.58C188.26 30.45 187.48 31.89 185.92 32.88C184.36 33.87 182.04 34.37 178.94 34.37L178.96 34.34ZM179.26 31.8C181.25 31.8 182.7 31.55 183.63 31.05C184.56 30.55 185.02 29.81 185.02 28.81C185.02 27.93 184.68 27.26 184 26.81C183.32 26.36 182.32 26.13 180.99 26.13H175.44L176.32 25.93C174.72 26.95 173.92 28.04 173.92 29.22C173.92 30.08 174.35 30.72 175.22 31.15C176.09 31.58 177.44 31.79 179.27 31.79L179.26 31.8ZM179.02 18.35C180.35 18.35 181.39 17.99 182.12 17.28C182.85 16.57 183.22 15.55 183.22 14.22C183.22 12.89 182.88 11.89 182.19 11.24C181.5 10.59 180.5 10.26 179.19 10.26C177.88 10.26 176.84 10.6 176.13 11.29C175.42 11.98 175.06 12.99 175.06 14.32C175.06 15.65 175.4 16.63 176.08 17.32C176.76 18.01 177.74 18.35 179.03 18.35H179.02Z" fill="#393939"/>
<path d="M198.06 26.55C196.5 26.55 195.13 26.21 193.94 25.52C192.75 24.83 191.83 23.81 191.16 22.47C190.49 21.13 190.16 19.48 190.16 17.54C190.16 15.6 190.5 13.84 191.19 12.41C191.88 10.98 192.86 9.86998 194.14 9.08998C195.41 8.30998 196.91 7.91998 198.63 7.91998C200.35 7.91998 201.63 8.25998 202.68 8.93998C203.73 9.61998 204.51 10.55 205.02 11.73C205.53 12.92 205.78 14.26 205.78 15.78C205.78 16.07 205.77 16.37 205.75 16.66C205.73 16.95 205.69 17.29 205.65 17.68H192.81V15.34H202.6L202.3 15.54C202.32 14.62 202.21 13.77 201.96 13C201.71 12.23 201.29 11.62 200.71 11.15C200.12 10.69 199.34 10.46 198.37 10.46C197.31 10.46 196.43 10.75 195.73 11.32C195.03 11.9 194.51 12.68 194.17 13.67C193.83 14.66 193.66 15.8 193.66 17.09C193.66 18.47 193.85 19.67 194.24 20.7C194.62 21.73 195.21 22.53 195.98 23.1C196.76 23.68 197.72 23.96 198.88 23.96C199.69 23.96 200.58 23.8 201.54 23.49C202.5 23.17 203.49 22.7 204.5 22.07L205.69 23.93C204.43 24.81 203.14 25.47 201.85 25.89C200.55 26.32 199.29 26.53 198.07 26.53L198.06 26.55Z" fill="#393939"/>
<path d="M208.42 26.21V24.42L211.4 23.71L210.93 24.29V10.27L211.4 10.88L208.42 10.17V8.38L213.57 8.14L214.01 11.43L213.57 11.26C214.68 10.13 215.84 9.3 217.08 8.75C218.31 8.21 219.48 7.94 220.58 7.94C222.09 7.94 223.35 8.4 224.34 9.33C225.33 10.26 225.82 11.69 225.8 13.63V24.3L225.43 23.76L228.31 24.44V26.23H220.05V24.44L222.86 23.76L222.42 24.34V14.35C222.42 13.04 222.13 12.08 221.54 11.47C220.95 10.86 220.17 10.56 219.2 10.56C218.43 10.56 217.6 10.77 216.71 11.19C215.82 11.61 214.94 12.25 214.09 13.1L214.33 12.49V24.34L213.96 23.8L216.7 24.44V26.23H208.44L208.42 26.21Z" fill="#393939"/>
<path d="M238.02 26.55C236.55 26.55 235.22 26.19 234.02 25.47C232.82 24.75 231.88 23.71 231.19 22.35C230.5 20.99 230.16 19.36 230.16 17.44C230.16 15.75 230.4 14.3 230.89 13.11C231.38 11.91 232.03 10.93 232.85 10.16C233.67 9.38999 234.6 8.82999 235.64 8.46999C236.68 8.10999 237.76 7.92999 238.89 7.92999C239.86 7.92999 240.87 8.05999 241.92 8.31999C242.97 8.57999 243.87 8.89999 244.61 9.27999L244.47 13.78H242.24L241.77 10.73L242.07 11C241.6 10.77 241.07 10.62 240.48 10.53C239.89 10.44 239.36 10.39 238.89 10.39C237.78 10.39 236.84 10.67 236.06 11.22C235.28 11.77 234.69 12.56 234.28 13.59C233.87 14.62 233.67 15.83 233.67 17.23C233.67 18.63 233.89 19.91 234.33 20.92C234.77 21.94 235.37 22.7 236.14 23.21C236.91 23.72 237.79 23.97 238.78 23.97C239.55 23.97 240.37 23.81 241.25 23.5C242.13 23.18 243.04 22.7 243.99 22.04L245.18 23.83C243.96 24.76 242.75 25.44 241.56 25.88C240.36 26.32 239.18 26.54 238 26.54L238.02 26.55Z" fill="#393939"/>
<path d="M254.96 26.55C253.4 26.55 252.03 26.21 250.84 25.52C249.65 24.83 248.73 23.81 248.06 22.47C247.39 21.13 247.06 19.48 247.06 17.54C247.06 15.6 247.4 13.84 248.09 12.41C248.78 10.98 249.76 9.86998 251.04 9.08998C252.32 8.30998 253.81 7.91998 255.53 7.91998C257.25 7.91998 258.53 8.25998 259.58 8.93998C260.63 9.61998 261.41 10.55 261.92 11.73C262.43 12.92 262.68 14.26 262.68 15.78C262.68 16.07 262.67 16.37 262.65 16.66C262.63 16.95 262.59 17.29 262.55 17.68H249.71V15.34H259.5L259.2 15.54C259.22 14.62 259.11 13.77 258.86 13C258.61 12.23 258.19 11.62 257.61 11.15C257.02 10.69 256.24 10.46 255.27 10.46C254.21 10.46 253.33 10.75 252.63 11.32C251.93 11.9 251.41 12.68 251.07 13.67C250.73 14.66 250.56 15.8 250.56 17.09C250.56 18.47 250.75 19.67 251.14 20.7C251.52 21.73 252.1 22.53 252.88 23.1C253.66 23.68 254.62 23.96 255.78 23.96C256.59 23.96 257.48 23.8 258.44 23.49C259.4 23.17 260.39 22.7 261.4 22.07L262.59 23.93C261.33 24.81 260.04 25.47 258.75 25.89C257.45 26.32 256.19 26.53 254.97 26.53L254.96 26.55Z" fill="#393939"/>
<path d="M97.3002 59.38L96.3902 58.57L99.4702 59.35V61.14H90.3602V59.35L93.6802 58.64L93.3402 59.18L91.7102 54.1L92.2902 54.57H82.4002L82.9102 54.1L81.1502 59.11L80.9802 58.67L84.2002 59.35V61.14H75.7002V59.35L78.7102 58.6L77.8602 59.31L86.0202 37.47L89.5802 37.37L97.3002 59.38ZM83.3802 52.61L83.0702 52.1H91.6702L91.3002 52.64L87.1702 39.4H87.9802L83.3702 52.61H83.3802Z" fill="#393939"/>
<path d="M100.21 61.14V59.35L103.12 58.67L102.71 59.25V45.2L103.15 45.81L100.2 45.1V43.3L105.35 43.06L105.79 46.35L105.35 46.21C106.37 45.15 107.37 44.33 108.35 43.74C109.33 43.15 110.39 42.86 111.52 42.86C112.24 42.86 113.01 42.97 113.82 43.2L113.58 48.42H111.51L111.07 45L111.44 45.71C111.28 45.67 111.12 45.63 110.95 45.61C110.78 45.59 110.62 45.58 110.46 45.58C109.62 45.58 108.81 45.83 108 46.34C107.2 46.85 106.46 47.5 105.78 48.29L106.09 47.31V59.27L105.65 58.69L109.24 59.37V61.16H100.2L100.21 61.14Z" fill="#393939"/>
<path d="M121.69 61.48C120.38 61.48 119.37 61.08 118.66 60.28C117.95 59.48 117.59 58.28 117.59 56.67V45.02L118.06 45.49H114.67V43.66L118.12 43.05L117.58 43.69V39.19L120.97 38.61V43.69L120.56 43.18H125.81L125.71 45.48H120.56L120.97 45.01V56.19C120.97 57.14 121.14 57.83 121.49 58.26C121.84 58.69 122.35 58.9 123.03 58.9C123.41 58.9 123.84 58.84 124.3 58.71C124.76 58.58 125.27 58.4 125.81 58.15L126.49 60.08C124.77 61.01 123.17 61.47 121.68 61.47L121.69 61.48Z" fill="#393939"/>
<path d="M134.01 59.07L133.7 58.66L136.55 59.34V61.13H128.12V59.34L130.96 58.66L130.62 59.07V45.42L130.93 45.72L128.12 45.08V43.28L134.01 43.08V59.07ZM132.15 39.77C131.54 39.77 131.04 39.58 130.64 39.19C130.24 38.8 130.05 38.26 130.05 37.56C130.05 36.86 130.25 36.29 130.66 35.92C131.07 35.55 131.57 35.36 132.18 35.36C132.79 35.36 133.33 35.55 133.72 35.92C134.12 36.29 134.31 36.84 134.31 37.56C134.31 38.28 134.1 38.83 133.68 39.2C133.26 39.57 132.75 39.76 132.14 39.76L132.15 39.77Z" fill="#393939"/>
<path d="M138.48 61.14V59.35L141.39 58.67L141.02 59.11V45.22L141.39 45.66H138.41V43.8L141.46 43.26L141.02 43.84V41.23C141.02 39.76 141.27 38.55 141.78 37.59C142.29 36.63 143 35.91 143.93 35.44C144.86 34.97 145.92 34.73 147.11 34.73C147.56 34.73 148.02 34.75 148.48 34.8C148.94 34.85 149.42 34.93 149.92 35.07L149.45 37.47C149.11 37.36 148.79 37.28 148.48 37.25C148.18 37.22 147.88 37.2 147.58 37.2C146.59 37.2 145.81 37.5 145.24 38.1C144.68 38.7 144.39 39.64 144.39 40.93V43.84L143.88 43.33H149.06L148.96 45.67H143.98L144.39 45.23V59.08L144.02 58.67L147.44 59.35V61.14H138.46H138.48Z" fill="#393939"/>
<path d="M156.67 59.07L156.36 58.66L159.21 59.34V61.13H150.78V59.34L153.62 58.66L153.28 59.07V45.42L153.59 45.72L150.78 45.08V43.28L156.67 43.08V59.07ZM154.81 39.77C154.2 39.77 153.7 39.58 153.3 39.19C152.9 38.8 152.71 38.26 152.71 37.56C152.71 36.86 152.91 36.29 153.32 35.92C153.73 35.55 154.23 35.36 154.84 35.36C155.45 35.36 155.99 35.55 156.38 35.92C156.78 36.29 156.97 36.84 156.97 37.56C156.97 38.28 156.76 38.83 156.34 39.2C155.92 39.57 155.41 39.76 154.8 39.76L154.81 39.77Z" fill="#393939"/>
<path d="M169.13 61.48C167.66 61.48 166.33 61.12 165.13 60.4C163.93 59.68 162.99 58.64 162.3 57.28C161.61 55.92 161.27 54.29 161.27 52.37C161.27 50.68 161.51 49.23 162 48.04C162.49 46.84 163.14 45.86 163.96 45.09C164.78 44.32 165.72 43.76 166.75 43.4C167.79 43.04 168.87 42.86 170 42.86C170.97 42.86 171.98 42.99 173.03 43.25C174.08 43.51 174.98 43.83 175.72 44.22L175.58 48.72H173.35L172.88 45.67L173.18 45.94C172.71 45.71 172.18 45.56 171.59 45.47C171 45.38 170.47 45.33 170 45.33C168.89 45.33 167.95 45.61 167.17 46.16C166.39 46.71 165.8 47.5 165.39 48.53C164.98 49.56 164.78 50.77 164.78 52.17C164.78 53.57 165 54.85 165.44 55.86C165.88 56.88 166.48 57.64 167.25 58.15C168.02 58.66 168.9 58.91 169.89 58.91C170.66 58.91 171.48 58.75 172.36 58.44C173.24 58.13 174.15 57.64 175.1 56.98L176.29 58.77C175.07 59.7 173.86 60.38 172.67 60.82C171.48 61.26 170.29 61.48 169.11 61.48H169.13Z" fill="#393939"/>
<path d="M183.97 59.07L183.66 58.66L186.51 59.34V61.13H178.08V59.34L180.92 58.66L180.58 59.07V45.42L180.89 45.72L178.08 45.08V43.28L183.97 43.08V59.07ZM182.11 39.77C181.5 39.77 181 39.58 180.6 39.19C180.2 38.8 180.01 38.26 180.01 37.56C180.01 36.86 180.21 36.29 180.62 35.92C181.03 35.55 181.53 35.36 182.14 35.36C182.75 35.36 183.29 35.55 183.68 35.92C184.08 36.29 184.27 36.84 184.27 37.56C184.27 38.28 184.06 38.83 183.64 39.2C183.22 39.57 182.71 39.76 182.1 39.76L182.11 39.77Z" fill="#393939"/>
<path d="M196.57 61.48C195.01 61.48 193.64 61.14 192.45 60.45C191.26 59.76 190.34 58.75 189.67 57.4C189 56.06 188.67 54.41 188.67 52.47C188.67 50.53 189.01 48.77 189.7 47.34C190.39 45.91 191.37 44.8 192.65 44.02C193.92 43.24 195.42 42.85 197.14 42.85C198.86 42.85 200.14 43.19 201.19 43.87C202.24 44.55 203.02 45.48 203.53 46.66C204.04 47.85 204.29 49.2 204.29 50.71C204.29 51 204.28 51.3 204.26 51.59C204.24 51.88 204.2 52.22 204.16 52.61H191.32V50.27H201.11L200.81 50.47C200.83 49.54 200.72 48.7 200.47 47.93C200.22 47.16 199.8 46.55 199.22 46.08C198.63 45.62 197.85 45.39 196.88 45.39C195.82 45.39 194.94 45.68 194.24 46.25C193.54 46.83 193.02 47.61 192.68 48.6C192.34 49.59 192.17 50.73 192.17 52.02C192.17 53.4 192.36 54.6 192.75 55.63C193.13 56.66 193.72 57.46 194.49 58.03C195.26 58.6 196.23 58.89 197.39 58.89C198.2 58.89 199.09 58.73 200.05 58.42C201.01 58.1 202 57.63 203.01 57L204.2 58.86C202.94 59.74 201.65 60.4 200.36 60.82C199.06 61.25 197.8 61.46 196.58 61.46L196.57 61.48Z" fill="#393939"/>
<path d="M212.38 59.07L212.08 58.66L214.89 59.34V61.13H206.46V59.34L209.3 58.66L209 59.07V37.29L209.27 37.59L206.46 36.95V35.16L212.39 34.92V59.07H212.38Z" fill="#393939"/>
<path d="M222.41 59.07L222.11 58.66L224.92 59.34V61.13H216.49V59.34L219.33 58.66L219.03 59.07V37.29L219.3 37.59L216.49 36.95V35.16L222.42 34.92V59.07H222.41Z" fill="#393939"/>
<path d="M235.01 61.48C233.45 61.48 232.08 61.14 230.89 60.45C229.7 59.76 228.78 58.75 228.11 57.4C227.44 56.06 227.11 54.41 227.11 52.47C227.11 50.53 227.45 48.77 228.14 47.34C228.83 45.91 229.81 44.8 231.09 44.02C232.37 43.24 233.86 42.85 235.58 42.85C237.3 42.85 238.58 43.19 239.63 43.87C240.68 44.55 241.46 45.48 241.97 46.66C242.48 47.85 242.73 49.2 242.73 50.71C242.73 51 242.72 51.3 242.7 51.59C242.68 51.88 242.64 52.22 242.6 52.61H229.76V50.27H239.55L239.25 50.47C239.27 49.54 239.16 48.7 238.91 47.93C238.66 47.16 238.24 46.55 237.66 46.08C237.07 45.62 236.29 45.39 235.32 45.39C234.26 45.39 233.38 45.68 232.68 46.25C231.98 46.83 231.46 47.61 231.12 48.6C230.78 49.59 230.61 50.73 230.61 52.02C230.61 53.4 230.8 54.6 231.19 55.63C231.57 56.66 232.15 57.46 232.93 58.03C233.71 58.61 234.67 58.89 235.83 58.89C236.64 58.89 237.53 58.73 238.49 58.42C239.45 58.11 240.44 57.63 241.45 57L242.64 58.86C241.38 59.74 240.09 60.4 238.8 60.82C237.5 61.25 236.24 61.46 235.02 61.46L235.01 61.48Z" fill="#393939"/>
<path d="M254.82 53.38C254.75 53.02 254.7 52.63 254.65 52.21C254.6 51.79 254.58 51.44 254.58 51.14C254.58 50.28 254.78 49.54 255.17 48.92C255.56 48.3 256.05 47.74 256.63 47.24C257.21 46.74 257.78 46.26 258.36 45.8C258.94 45.34 259.42 44.83 259.82 44.28C260.21 43.73 260.41 43.08 260.41 42.33C260.41 41.41 260.08 40.72 259.43 40.28C258.78 39.84 257.96 39.62 256.99 39.62C256.36 39.62 255.67 39.7 254.92 39.87C254.17 40.04 253.43 40.25 252.68 40.5L251.93 38.26C253.94 37.45 255.91 37.04 257.86 37.04C258.99 37.04 260.01 37.2 260.93 37.51C261.84 37.83 262.57 38.33 263.1 39.02C263.63 39.71 263.9 40.62 263.9 41.75C263.9 42.81 263.68 43.71 263.24 44.46C262.8 45.21 262.26 45.86 261.61 46.42C260.96 46.98 260.32 47.53 259.68 48.04C259.04 48.56 258.49 49.11 258.06 49.7C257.62 50.29 257.4 50.98 257.4 51.77C257.4 51.93 257.4 52.15 257.42 52.45C257.43 52.74 257.45 53 257.47 53.23L254.83 53.36L254.82 53.38ZM254.48 59.34C254.48 58.71 254.68 58.2 255.09 57.82C255.5 57.44 255.99 57.24 256.58 57.24C257.17 57.24 257.68 57.43 258.05 57.8C258.42 58.17 258.61 58.66 258.61 59.27C258.61 59.93 258.41 60.44 258 60.81C257.59 61.18 257.1 61.37 256.51 61.37C255.92 61.37 255.41 61.18 255.04 60.81C254.67 60.44 254.48 59.95 254.48 59.34Z" fill="#393939"/>
<path d="M5.75 89.01C4.66 89.01 3.67 88.76 2.8 88.26C1.93 87.76 1.24 87.05 0.75 86.11C0.25 85.17 0 84.03 0 82.68C0 81.33 0.27 80.12 0.81 79.19C1.35 78.26 2.09 77.55 3.02 77.07C3.96 76.6 5.02 76.36 6.21 76.36C6.89 76.36 7.61 76.44 8.35 76.61C9.09 76.78 9.85 77.01 10.62 77.32L10.47 80.17H9.41L9.05 77.93L9.35 78.25C8.81 78.05 8.28 77.9 7.76 77.8C7.24 77.7 6.76 77.65 6.3 77.65C5.38 77.65 4.58 77.84 3.9 78.23C3.23 78.61 2.71 79.17 2.35 79.9C1.99 80.63 1.81 81.52 1.81 82.57C1.81 83.62 1.99 84.59 2.36 85.35C2.73 86.11 3.23 86.69 3.87 87.09C4.51 87.49 5.24 87.69 6.06 87.69C6.67 87.69 7.33 87.57 8.03 87.33C8.73 87.09 9.45 86.73 10.17 86.24L10.79 87.24C9.95 87.84 9.1 88.28 8.23 88.57C7.36 88.86 6.53 89.01 5.74 89.01H5.75Z" fill="#DC121B"/>
<path d="M19.6302 88.99C18.4802 88.99 17.4602 88.76 16.5702 88.3C15.6802 87.84 14.9902 87.15 14.4802 86.22C13.9702 85.29 13.7202 84.16 13.7202 82.81C13.7202 81.39 13.9902 80.21 14.5402 79.25C15.0902 78.3 15.8302 77.58 16.7702 77.09C17.7102 76.6 18.7702 76.36 19.9602 76.36C21.1502 76.36 22.1602 76.59 23.0602 77.05C23.9602 77.51 24.6702 78.19 25.2002 79.09C25.7202 79.99 25.9902 81.11 25.9902 82.44C25.9902 83.77 25.7202 84.99 25.1702 85.96C24.6202 86.93 23.8702 87.68 22.9202 88.2C21.9702 88.72 20.8702 88.98 19.6202 88.98L19.6302 88.99ZM19.7802 87.69C20.6002 87.69 21.3502 87.51 22.0202 87.14C22.6902 86.77 23.2202 86.21 23.6102 85.45C24.0002 84.69 24.2002 83.73 24.2002 82.57C24.2002 81.48 24.0202 80.57 23.6502 79.84C23.2802 79.11 22.7702 78.57 22.1302 78.21C21.4802 77.85 20.7402 77.67 19.9002 77.67C19.0602 77.67 18.3402 77.85 17.6902 78.21C17.0402 78.57 16.5202 79.13 16.1402 79.88C15.7602 80.63 15.5702 81.6 15.5702 82.78C15.5702 83.87 15.7502 84.78 16.1102 85.51C16.4702 86.23 16.9702 86.78 17.6002 87.15C18.2302 87.52 18.9702 87.7 19.8002 87.7L19.7802 87.69Z" fill="#DC121B"/>
<path d="M37.9001 76.64L42.7501 76.55V77.44L40.8301 77.89L41.1301 77.51V88.82H39.1901L31.8001 78.07H32.0601V87.89L31.8501 87.53L33.9401 87.91V88.83H29.0601V87.91L31.0001 87.53L30.6801 87.89V77.52L30.9101 77.86L29.0601 77.54V76.65L32.7001 76.56L40.0501 87.25H39.7501V77.5L39.9601 77.88L37.8901 77.54V76.65L37.9001 76.64Z" fill="#DC121B"/>
<path d="M50.2101 88.84L45.9701 77.55L46.3501 77.87L44.5801 77.53V76.64L49.6901 76.55V77.44L47.5801 77.89L47.7101 77.42L51.4201 87.73H51.0801L54.9801 77.51L55.0701 77.87L53.0501 77.53V76.64L57.8801 76.55V77.44L56.0901 77.84L56.5201 77.52L52.1101 88.83H50.2101V88.84Z" fill="#DC121B"/>
<path d="M68.6701 85.81H69.7301V88.81H59.8901V87.89L61.8101 87.51L61.5301 87.87V77.52L61.7901 77.88L59.8901 77.54V76.62L63.1001 76.53H69.4901V79.45H68.4301L68.0901 77.51L68.4101 77.79H62.9401L63.2601 77.49V82.09L62.9401 81.81H67.9701V82.96H62.9401L63.2601 82.68V87.85L62.9401 87.53H68.6501L68.3301 87.85L68.6701 85.78V85.81Z" fill="#DC121B"/>
<path d="M81.8898 76.64L86.7398 76.55V77.44L84.8198 77.89L85.1198 77.51V88.82H83.1798L75.7898 78.07H76.0498V87.89L75.8398 87.53L77.9298 87.91V88.83H73.0498V87.91L74.9898 87.53L74.6698 87.89V77.52L74.8998 77.86L73.0498 77.54V76.65L76.6898 76.56L84.0398 87.25H83.7398V77.5L83.9498 77.88L81.8798 77.54V76.65L81.8898 76.64Z" fill="#DC121B"/>
<path d="M91.2102 88.82V87.9L93.5302 87.52L93.1502 87.97V77.51L93.5802 77.81H90.0002L90.4302 77.45L90.0302 79.81H88.9702V76.55H99.1102V79.81H98.0502L97.6702 77.51L98.0502 77.81H94.5402L94.9002 77.51V87.97L94.6002 87.52L96.9002 87.9V88.82H91.2402H91.2102Z" fill="#DC121B"/>
<path d="M106.54 77.45L104.67 77.88L104.9 77.58V87.82L104.67 87.54L106.54 87.9V88.82H101.52V87.9L103.39 87.54L103.18 87.82V77.58L103.44 77.88L101.52 77.56V76.64L106.54 76.55V77.44V77.45Z" fill="#DC121B"/>
<path d="M115.51 88.99C114.36 88.99 113.34 88.76 112.45 88.3C111.56 87.84 110.87 87.15 110.36 86.22C109.85 85.29 109.6 84.16 109.6 82.81C109.6 81.39 109.87 80.21 110.42 79.25C110.97 78.3 111.71 77.58 112.65 77.09C113.59 76.6 114.65 76.36 115.84 76.36C117.03 76.36 118.04 76.59 118.94 77.05C119.84 77.51 120.55 78.19 121.08 79.09C121.6 79.99 121.87 81.11 121.87 82.44C121.87 83.77 121.6 84.99 121.05 85.96C120.5 86.93 119.75 87.68 118.8 88.2C117.85 88.72 116.75 88.98 115.5 88.98L115.51 88.99ZM115.66 87.69C116.48 87.69 117.23 87.51 117.9 87.14C118.57 86.77 119.1 86.21 119.49 85.45C119.88 84.69 120.08 83.73 120.08 82.57C120.08 81.48 119.9 80.57 119.53 79.84C119.16 79.11 118.65 78.57 118.01 78.21C117.36 77.85 116.62 77.67 115.78 77.67C114.94 77.67 114.22 77.85 113.57 78.21C112.92 78.57 112.4 79.13 112.02 79.88C111.64 80.63 111.45 81.6 111.45 82.78C111.45 83.87 111.63 84.78 111.99 85.51C112.35 86.23 112.85 86.78 113.48 87.15C114.11 87.52 114.85 87.7 115.68 87.7L115.66 87.69Z" fill="#DC121B"/>
<path d="M133.78 76.64L138.63 76.55V77.44L136.71 77.89L137.01 77.51V88.82H135.07L127.68 78.07H127.94V87.89L127.73 87.53L129.82 87.91V88.83H124.94V87.91L126.88 87.53L126.56 87.89V77.52L126.79 77.86L124.94 77.54V76.65L128.58 76.56L135.93 87.25H135.63V77.5L135.84 77.88L133.77 77.54V76.65L133.78 76.64Z" fill="#DC121B"/>
<path d="M155.45 85.81H156.51V88.81H146.67V87.89L148.59 87.51L148.31 87.87V77.52L148.57 77.88L146.67 77.54V76.62L149.88 76.53H156.27V79.45H155.21L154.87 77.51L155.19 77.79H149.72L150.04 77.49V82.09L149.72 81.81H154.75V82.96H149.72L150.04 82.68V87.85L149.72 87.53H155.43L155.11 87.85L155.45 85.78V85.81ZM150.53 74.59L149.91 73.72L153.79 70.68L154.75 71.98L150.53 74.6V74.59Z" fill="#DC121B"/>
<path d="M161.56 88.82V87.9L163.88 87.52L163.5 87.97V77.51L163.93 77.81H160.35L160.78 77.45L160.38 79.81H159.32V76.55H169.46V79.81H168.4L168.02 77.51L168.4 77.81H164.89L165.25 77.51V87.97L164.95 87.52L167.25 87.9V88.82H161.59H161.56Z" fill="#DC121B"/>
<path d="M179.73 76.64L184.88 76.55V77.44L182.98 77.87L183.24 77.42V84.17C183.24 85.25 183.06 86.15 182.71 86.86C182.36 87.57 181.8 88.11 181.04 88.47C180.28 88.83 179.28 89 178.05 89C176.29 89 175.02 88.62 174.25 87.87C173.48 87.12 173.09 85.95 173.09 84.38V77.44L173.32 77.87L171.42 77.53V76.64L176.57 76.55V77.44L174.48 77.87L174.8 77.44V84.47C174.8 85.58 175.04 86.39 175.52 86.92C176 87.44 176.85 87.71 178.08 87.71C178.95 87.71 179.63 87.58 180.13 87.33C180.63 87.07 180.99 86.69 181.19 86.17C181.4 85.65 181.5 85.02 181.5 84.26V77.43L181.8 77.86L179.71 77.54V76.65L179.73 76.64Z" fill="#DC121B"/>
<path d="M193.12 76.55C193.99 76.55 194.79 76.67 195.54 76.91C196.29 77.15 196.93 77.52 197.49 78.01C198.04 78.5 198.47 79.12 198.78 79.86C199.09 80.6 199.24 81.47 199.24 82.47C199.24 83.83 198.96 84.99 198.4 85.93C197.84 86.87 197.08 87.59 196.12 88.08C195.16 88.57 194.07 88.81 192.83 88.81H187.38V87.89L189.3 87.51L189.02 87.87V77.52L189.32 77.88L187.38 77.54V76.62L191.15 76.53H193.13L193.12 76.55ZM192.93 87.56C193.77 87.56 194.52 87.4 195.2 87.08C195.88 86.76 196.41 86.24 196.82 85.5C197.22 84.77 197.43 83.79 197.43 82.57C197.43 81.43 197.24 80.52 196.87 79.81C196.49 79.11 195.98 78.6 195.34 78.28C194.69 77.96 193.97 77.8 193.16 77.8H190.41L190.75 77.5V87.87L190.41 87.55H192.94L192.93 87.56Z" fill="#DC121B"/>
<path d="M207.26 77.45L205.39 77.88L205.62 77.58V87.82L205.39 87.54L207.26 87.9V88.82H202.24V87.9L204.11 87.54L203.9 87.82V77.58L204.16 77.88L202.24 77.56V76.64L207.26 76.55V77.44V77.45Z" fill="#DC121B"/>
<path d="M221.46 87.88L221.01 87.52L222.86 87.9V88.82H217.64V87.9L219.6 87.5L219.49 87.82L218.49 85.03L218.79 85.37H213.1L213.38 85.11L212.34 87.77L212.3 87.51L214.2 87.89V88.81H209.26V87.89L211.11 87.51L210.71 87.83L215.29 76.54L217.14 76.48L221.46 87.87V87.88ZM213.56 84.49L213.5 84.21H218.46L218.38 84.53L215.93 77.44H216.29L213.56 84.49Z" fill="#DC121B"/>
<path d="M233.72 76.64L238.57 76.55V77.44L236.65 77.89L236.95 77.51V88.82H235.01L227.62 78.07H227.87V87.89L227.66 87.53L229.75 87.91V88.83H224.87V87.91L226.81 87.53L226.49 87.89V77.52L226.72 77.86L224.87 77.54V76.65L228.51 76.56L235.86 87.25H235.56V77.5L235.77 77.88L233.7 77.54V76.65L233.72 76.64Z" fill="#DC121B"/>
<path d="M243.05 88.82V87.9L245.37 87.52L244.99 87.97V77.51L245.42 77.81H241.84L242.27 77.45L241.86 79.81H240.8V76.55H250.94V79.81H249.88L249.5 77.51L249.88 77.81H246.37L246.73 77.51V87.97L246.43 87.52L248.73 87.9V88.82H243.07H243.05Z" fill="#DC121B"/>
<path d="M262.12 85.81H263.18V88.81H253.34V87.89L255.26 87.51L254.98 87.87V77.52L255.24 77.88L253.34 77.54V76.62L256.55 76.53H262.94V79.45H261.88L261.54 77.51L261.86 77.79H256.39L256.71 77.49V82.09L256.39 81.81H261.42V82.96H256.39L256.71 82.68V87.85L256.39 87.53H262.1L261.78 87.85L262.12 85.78V85.81Z" fill="#DC121B"/>
</g>
<defs>
<clipPath id="clip0_367_179">
<rect width="263.9" height="89.01" fill="white"/>
</clipPath>
</defs>
</svg>
