
<svg width="250" height="64" viewBox="0 0 250 64" fill="none" xmlns="http://www.w3.org/2000/svg">
<path fill-rule="evenodd" clip-rule="evenodd" d="M82.7025 40.0429L80.0345 39.4144V37.6894L85.8382 37.5332H89.4458C93.3682 37.5332 96.1911 39.257 96.1911 43.022C96.1911 45.8458 94.7475 47.4464 92.1138 48.1045C95.4069 48.8566 96.9745 50.7086 96.9745 53.2179C96.9745 57.611 94.1529 59.4922 88.9751 59.4922H80.0345V57.611L82.7025 56.9834V40.0429ZM88.1901 46.944C91.0155 46.944 92.8968 45.8458 92.8968 43.3369C92.8968 41.1399 91.3296 40.0429 89.2888 40.0429H85.8386V46.944H88.1901ZM93.6801 53.3762C93.6801 55.7285 92.1138 56.9834 89.1326 56.9834H85.8386V49.295H88.1901C91.6415 49.295 93.6801 50.238 93.6801 53.3762Z" fill="#393939"/>
<path fill-rule="evenodd" clip-rule="evenodd" d="M106.646 59.8057C111.351 59.8057 114.49 56.1973 114.49 50.8647C114.49 45.8461 111.824 42.5513 107.116 42.5513C102.411 42.5513 99.1174 46.0044 99.1174 51.3357C99.1174 56.9846 101.939 59.8057 106.646 59.8057ZM106.803 57.2964C103.666 57.2964 102.411 54.9429 102.411 51.1796C102.411 47.101 103.824 45.0619 106.961 45.0619C110.098 45.0619 111.195 47.5729 111.195 51.0221C111.195 55.1016 109.94 57.2964 106.803 57.2964Z" fill="#393939"/>
<path d="M121.776 45.1558C122.56 44.2772 124.381 42.5513 126.512 42.5513C128.081 42.5513 129.336 43.0228 129.336 43.0228L129.18 47.5729H127.141L126.669 45.2184C124.316 45.2184 122.811 46.7565 122.122 47.6655V56.9841L125.258 57.7679V59.4921H116.317V57.7679L118.983 56.9841V45.3763L116.317 44.7495V43.0228L121.493 42.8653L121.776 45.1558Z" fill="#393939"/>
<path fill-rule="evenodd" clip-rule="evenodd" d="M142.823 59.4911L148.157 59.3354V57.6112L145.489 56.9836V35.3364L139.686 35.4926V37.2194L142.352 37.847V43.0539C141.536 42.7708 140.533 42.5507 139.372 42.5507C133.724 42.5507 131.058 46.3166 131.058 51.6492C131.058 56.5134 133.097 59.8039 137.647 59.8039C140.032 59.8039 141.661 58.6142 142.571 57.7026L142.823 59.4911ZM139.058 45.0609C141.255 45.0609 142.353 45.6881 142.353 45.6881V54.9445C142.353 54.9445 140.941 57.2963 138.275 57.2963C135.451 57.2963 134.353 54.7866 134.353 51.3352C134.353 47.8846 135.42 45.0609 139.058 45.0609Z" fill="#393939"/>
<path fill-rule="evenodd" clip-rule="evenodd" d="M157.357 57.2964C154.659 57.2964 152.808 55.1016 152.808 51.6515H163.631C163.631 51.6372 163.639 51.5824 163.651 51.4974C163.693 51.2005 163.789 50.534 163.789 49.9247C163.789 45.2184 161.748 42.5513 157.199 42.5513C152.651 42.5513 149.515 46.3171 149.515 51.3357C149.515 56.5118 152.025 59.8057 157.043 59.8057C160.806 59.8057 163.725 57.2025 163.725 57.2025L162.627 55.571C162.627 55.571 160.494 57.2964 157.357 57.2964ZM157.042 44.9988C159.554 44.9988 160.462 46.9444 160.462 49.2958H152.932C153.122 46.9439 154.532 44.9988 157.042 44.9988Z" fill="#393939"/>
<path fill-rule="evenodd" clip-rule="evenodd" d="M174.342 42.5508C171.678 42.5508 168.225 43.8061 168.225 43.8061L168.383 47.7277H170.422L170.861 45.3758C170.861 45.3758 172.147 44.9052 174.029 44.9052C175.913 44.9052 177.011 45.8465 177.011 47.7277V50.2378H174.5C170.11 50.2378 167.285 51.4918 167.285 55.099C167.285 58.0815 169.011 59.807 171.99 59.807C174.187 59.807 176.07 58.3629 177.136 57.296L177.794 59.4912L182.657 59.3351V57.61L180.147 56.9836V47.4154C180.147 43.8061 177.982 42.5508 174.342 42.5508ZM170.486 54.9437C170.486 53.0612 171.678 52.2774 174.815 52.2774V52.2769H177.012V54.7862C177.012 54.7862 175.127 57.296 172.776 57.296C171.364 57.296 170.486 56.356 170.486 54.9437Z" fill="#393939"/>
<path d="M202.524 59.3354L197.347 59.4916L197.034 57.2963C196.28 57.9557 193.803 59.8073 191.231 59.8073C187.779 59.8073 186.21 57.6421 186.21 54.1898V45.3762L183.543 44.7473V43.0222L189.348 42.8647V53.8771C189.348 56.0732 190.132 57.138 192.17 57.138C194.836 57.138 196.72 54.6613 196.72 54.6613V45.3762L194.054 44.7473V43.0222L199.857 42.8647V56.9823L202.524 57.6099V59.3354H202.524Z" fill="#393939"/>
<path d="M212.923 48.9833L216.687 43.0222L221.236 42.8647V44.7473L218.57 45.2183L214.647 51.022L218.664 57.0458L221.55 57.7661V59.4911H213.894V57.7661L215.149 57.3898L212.579 53.2507L208.686 59.4911H204.137V57.7661L206.898 57.0458L210.884 51.1794L206.868 45.1861L204.451 44.7473V43.0222L211.604 42.8647V44.7473L210.506 44.9373L212.923 48.9833Z" fill="#393939"/>
<path d="M83.0621 24.0031C83.0621 24.0031 84.4671 24.7835 86.4976 24.7835C88.7761 24.7835 91.2759 23.6586 91.2759 21.4428C91.2759 16.6344 80.0032 18.6327 80.0032 11.1696C80.0032 6.79799 83.5001 4.95581 87.4041 4.95581C90.369 4.95581 93.992 6.20381 93.992 6.20381L93.8346 11.5111H91.8058L90.7431 8.17169C90.7431 8.17169 89.151 7.61011 87.4333 7.61011C84.6219 7.61011 83.2796 9.07734 83.2796 10.6385C83.2796 15.386 94.5223 13.5747 94.5223 20.5998C94.5223 25.2833 90.7427 27.4395 86.3719 27.4395C83.0917 27.4395 79.9397 26.1889 79.9397 26.1889V20.7233H82.4361L83.0621 24.0031Z" fill="#393939"/>
<path d="M107.369 13.074C107.369 13.074 106.12 12.7613 104.558 12.7613C101.592 12.7613 99.8751 14.6352 99.8751 18.5375C99.8751 22.7538 101.747 24.9401 104.715 24.9401C107.682 24.9401 109.555 23.0666 109.555 23.0666L110.648 24.9401C110.648 24.9401 107.837 27.4382 104.402 27.4382C99.2496 27.4382 96.5966 24.1601 96.5966 18.8511C96.5966 13.854 99.7185 10.2627 104.715 10.2627C107.525 10.2627 110.023 11.5107 110.023 11.5107L109.868 15.727H107.838L107.369 13.074Z" fill="#393939"/>
<path fill-rule="evenodd" clip-rule="evenodd" d="M119.157 5.42276C119.157 3.86158 118.376 3.23779 117.128 3.23779C116.036 3.23779 115.098 4.01903 115.098 5.42276C115.098 6.82949 115.88 7.61072 117.128 7.61072C118.065 7.61072 119.157 6.82906 119.157 5.42276ZM113.069 27.1265H121.188V25.4079L118.846 24.6279V10.5761L113.069 10.7318V12.4504L115.724 13.0733V24.6275L113.069 25.4075V27.1265Z" fill="#393939"/>
<path fill-rule="evenodd" clip-rule="evenodd" d="M131.361 24.7839C128.677 24.7839 126.834 22.5976 126.834 19.1625H137.606C137.606 19.1487 137.614 19.0953 137.626 19.012C137.668 18.7183 137.763 18.0535 137.763 17.4465C137.763 12.7617 135.733 10.1069 131.205 10.1069C126.676 10.1069 123.554 13.8531 123.554 18.8502C123.554 24.0039 126.054 27.2829 131.048 27.2829C134.796 27.2829 137.701 24.6891 137.701 24.6891L136.608 23.0653C136.608 23.0653 134.485 24.7839 131.361 24.7839ZM131.048 12.5412C133.547 12.5412 134.452 14.479 134.452 16.8214H126.96C127.146 14.479 128.552 12.5412 131.048 12.5412Z" fill="#393939"/>
<path d="M145.764 12.7931C146.512 12.1375 148.979 10.2632 151.571 10.2632C155.007 10.2632 156.567 12.4486 156.567 15.8841V24.6295L158.911 25.4091V27.1255H151.415V25.4091L153.446 24.6295V16.1977C153.446 14.0102 152.663 12.9175 150.634 12.9175C147.98 12.9175 146.108 15.4148 146.108 15.4148V24.6291L148.136 25.4086V27.1251H140.329V25.4086L142.984 24.6291V13.0741L140.329 12.4486V10.7317L145.482 10.5755L145.764 12.7931Z" fill="#393939"/>
<path d="M172.161 13.074C172.161 13.074 170.912 12.7613 169.351 12.7613C166.385 12.7613 164.667 14.6352 164.667 18.5375C164.667 22.7538 166.54 24.9401 169.506 24.9401C172.474 24.9401 174.347 23.0666 174.347 23.0666L175.44 24.9401C175.44 24.9401 172.63 27.4382 169.193 27.4382C164.043 27.4382 161.388 24.1601 161.388 18.8511C161.388 13.854 164.509 10.2627 169.506 10.2627C172.317 10.2627 174.815 11.5107 174.815 11.5107L174.66 15.727H172.63L172.161 13.074Z" fill="#393939"/>
<path fill-rule="evenodd" clip-rule="evenodd" d="M185.393 24.9406C182.708 24.9406 180.862 22.754 180.862 19.3188V19.3184H191.639C191.639 19.3046 191.647 19.2512 191.658 19.168C191.699 18.8744 191.792 18.2097 191.792 17.6024C191.792 12.9175 189.763 10.2637 185.234 10.2637C180.709 10.2637 177.584 14.009 177.584 19.0074C177.584 24.1598 180.083 27.4379 185.08 27.4379C188.826 27.4379 191.731 24.8458 191.731 24.8458L190.638 23.2224C190.638 23.2224 188.513 24.9406 185.393 24.9406ZM185.079 12.6992C187.578 12.6992 188.483 14.6353 188.483 16.9777H180.989C181.175 14.6353 182.58 12.6992 185.079 12.6992Z" fill="#393939"/>
<path d="M197.164 24.8153C197.164 24.8153 198.103 25.0963 199.787 25.0963C201.661 25.0963 203.317 24.5656 203.317 22.6303C203.317 19.257 194.604 20.8186 194.604 15.1351C194.604 11.8866 197.102 10.2632 200.319 10.2632C202.785 10.2632 205.659 11.2006 205.659 11.2006L205.564 15.4165H203.532L203.036 12.9801C203.036 12.9801 202.066 12.6052 200.505 12.6052C198.913 12.6052 197.726 13.1045 197.726 14.6975C197.726 18.0399 206.438 16.758 206.438 22.0984C206.438 25.6883 203.317 27.4383 199.569 27.4383C196.695 27.4383 194.635 26.7514 194.635 26.7514V22.1297H196.82L197.164 24.8153Z" fill="#393939"/>
<path fill-rule="evenodd" clip-rule="evenodd" d="M216.274 7.14095L218.929 7.76559V24.6284L216.274 25.2534V27.1261H224.861V25.2534L222.208 24.6284V19.0079H224.236C229.547 19.0079 232.67 16.5084 232.67 11.6709C232.67 7.76559 230.169 5.26831 225.485 5.26831H222.208L216.274 5.42276V7.14095ZM229.389 12.1377C229.389 14.9481 227.671 16.5084 224.236 16.5084V16.5089H222.208V7.76602H225.331C227.984 7.76602 229.389 9.63952 229.389 12.1377Z" fill="#393939"/>
<path fill-rule="evenodd" clip-rule="evenodd" d="M242.193 27.4383C246.876 27.4383 250 23.8466 250 18.5376C250 13.5426 247.346 10.2632 242.663 10.2632C237.979 10.2632 234.699 13.6979 234.699 19.0073C234.699 24.6291 237.509 27.4383 242.193 27.4383ZM242.351 24.9414C239.226 24.9414 237.979 22.5973 237.979 18.8512C237.979 14.7923 239.382 12.7613 242.506 12.7609C245.627 12.7609 246.721 15.2595 246.721 18.6946C246.721 22.7543 245.47 24.9414 242.351 24.9414Z" fill="#393939"/>
<rect y="0.950195" width="63.8878" height="62.5111" fill="#DC121B"/>
<path d="M24.0123 22.1915C24.0123 16.0253 29.0111 11.0273 35.1773 11.0273C35.9376 11.0273 36.6797 11.1033 37.3971 11.2483L38.8274 9.26494C37.666 8.93847 36.4425 8.76343 35.1773 8.76343C27.761 8.76343 21.7488 14.7765 21.7488 22.192L21.7432 38.6691C21.7008 41.9652 19.0156 44.6345 15.7092 44.6345C15.003 44.6345 14.2295 44.5126 13.6001 44.2909L12.2058 46.2223C13.2462 46.6877 14.4959 46.9464 15.7092 46.9464C20.2584 46.9464 23.9192 43.2029 24.0144 38.6759L24.0123 22.1915Z" fill="white"/>
<path d="M34.9461 47.6859C34.2957 47.6859 33.6707 47.58 33.0833 47.3895L31.6805 49.3346C32.6835 49.7619 33.7869 49.9996 34.9457 49.9996C39.5567 49.9996 43.293 46.2612 43.293 41.6519C43.293 39.5355 42.4985 37.6097 41.2024 36.1382L39.8013 38.0786C40.5387 39.0799 40.9806 40.3125 40.9806 41.6514C40.9815 44.9844 38.2795 47.6859 34.9461 47.6859Z" fill="white"/>
<path d="M29.1283 40.0694L26.7906 38.3889V22.1898C26.7906 17.5822 30.5646 13.8425 35.1778 13.8425C39.7849 13.8425 43.5247 17.5814 43.5247 22.189C43.5247 25.087 42.0497 27.6409 39.8077 29.1334C38.6266 29.9305 37.2319 30.4252 35.7273 30.5187C35.5442 30.5359 35.361 30.5406 35.1778 30.5406V28.2299V28.2256C38.5112 28.2256 41.214 25.5228 41.214 22.1894C41.214 18.8594 38.5108 16.1579 35.1778 16.1579C31.8439 16.1579 29.1411 18.8594 29.1411 22.1894L29.1283 40.0694Z" fill="white"/>
<path d="M44.3123 32.0322C43.7542 32.5526 43.1484 33.0258 42.5092 33.4428C44.7212 35.4811 46.1116 38.4048 46.1116 41.6533C46.1116 47.8173 41.1106 52.8175 34.9474 52.8175C33.1798 52.8175 31.5076 52.4069 30.024 51.6763L28.6834 53.5339C30.5534 54.5219 32.6839 55.0809 34.9474 55.0809C42.3642 55.0809 48.3751 49.0658 48.3751 41.6528C48.3751 37.8805 46.819 34.4707 44.3123 32.0322Z" fill="white"/>
<path opacity="0.5" d="M41.2045 10.1898C40.5739 9.86931 39.9132 9.60118 39.2311 9.38324C39.0985 9.34463 38.9621 9.30259 38.8257 9.2644L37.4151 11.2507C38.0414 11.379 38.6472 11.5579 39.2311 11.7836C39.9257 12.0573 40.5911 12.3975 41.2093 12.7939C44.2943 14.7807 46.3407 18.2462 46.3407 22.1888C46.3407 25.5304 44.8709 28.5318 42.5426 30.5821C41.9334 31.12 41.2595 31.5924 40.5349 31.9892C39.0874 32.7846 37.4451 33.2604 35.6965 33.3402C35.4489 33.3192 35.1992 33.3046 34.9457 33.3046C32.6826 33.3046 30.6324 34.2072 29.1304 35.6719L29.1274 40.0688L26.7897 38.3884C26.7897 41.1881 25.9184 43.5533 24.4473 45.4469C23.9398 46.0995 23.3598 46.6915 22.7248 47.2209C20.7934 48.81 18.321 49.7649 15.6272 49.7649C13.7898 49.7649 12.0591 49.3218 10.5336 48.5375L9.1989 50.3913C11.1084 51.4364 13.296 52.0284 15.6272 52.0284C18.7264 52.0284 21.5789 50.9752 23.8497 49.2149C25.0814 51.0189 26.7404 52.5085 28.683 53.533L30.0236 51.6753C28.1853 50.7697 26.6318 49.3733 25.5383 47.6589C26.2389 46.891 26.8506 46.042 27.3599 45.1286C28.2252 47.0124 29.7679 48.5204 31.68 49.3342L33.0829 47.3891C30.6628 46.604 28.9108 44.3328 28.9108 41.6514C28.9108 38.318 31.6131 35.617 34.9453 35.617C36.9393 35.617 38.7025 36.5887 39.8008 38.0786L41.202 36.1382C40.7648 35.644 40.2697 35.2025 39.7279 34.8216C40.7116 34.4668 41.6456 34.006 42.5079 33.4427C43.1471 33.0257 43.7529 32.5525 44.311 32.0321C46.9538 29.5803 48.6037 26.0761 48.6037 22.1893C48.605 16.942 45.5955 12.3971 41.2045 10.1898Z" fill="white"/>
<path opacity="0.5" d="M35.1773 28.2266C35.1773 28.2266 35.0242 28.2231 34.9461 28.2231C32.8645 28.2231 30.8941 28.6968 29.1351 29.5424L29.1343 32.1254C30.8645 31.0902 32.925 30.5051 35.1773 30.539V28.2266Z" fill="white"/>
</svg>
