<svg width="414" height="174" viewBox="0 0 414 174" fill="none" xmlns="http://www.w3.org/2000/svg">
<g clip-path="url(#clip0_373_218)">
<path d="M282.12 120.49H213.52V111.92H230.67V9.02H213.52V0.440002H282.12V9.02H264.97V111.92H282.12V120.49Z" fill="#891722"/>
<path d="M316.41 86.19V94.77H307.84V111.92H316.41V120.49H282.11V111.92H290.68V103.34H299.25V86.19H307.82V69.04H316.39V51.89H324.96V34.74H333.53V9.02H342.1V0.440002H350.67V9.02H359.24V26.17H367.81V43.32H376.38V60.47H384.95V86.19H393.52V103.34H402.09V111.92H410.66V120.49H359.21V111.92H367.78V103.34H359.21V86.19H316.34H316.41ZM350.71 77.62V60.47H342.14V34.75H333.57V51.9H325V69.05H316.43V77.63H350.73L350.71 77.62Z" fill="#891722"/>
<path d="M20.73 78.26H0.25V76.13L1.97 75.97C5.17 75.64 6.72 73.84 6.72 70.48V29.58C6.72 27.37 6.15 26.71 2.95 25.16L0 23.77L14.26 20.08V25.16L11.72 28.68V31.38L13.19 29.17C17.29 23.02 21.63 19.99 26.71 19.99C35.97 19.99 42.61 27.77 42.61 38.51C42.61 50.97 34.17 60.14 22.7 60.14C19.34 60.14 16.55 59.57 14.26 58.42V70.47C14.26 73.83 15.82 75.63 19.01 75.96L20.73 76.12V78.25V78.26ZM14.26 30.9V53.43C16.39 55.4 19.67 56.87 22.54 56.87C29.67 56.87 34.42 50.23 34.42 40.4C34.42 31.47 29.83 25.16 23.19 25.16C19.67 25.16 16.39 27.54 14.26 30.9Z" fill="black"/>
<path d="M59.82 28.68C63.75 23.11 68.67 19.99 73.59 19.99C80.72 19.99 84.9 24.5 84.9 32.2V51.62C84.9 54.98 86.46 56.78 89.65 57.11L91.37 57.27V59.4H71.54V57.27L73.01 57.11C75.96 56.78 77.35 54.98 77.35 51.62V32.77C77.35 27.93 74.65 25.15 69.98 25.15C66.62 25.15 63.18 27.12 60.72 30.39V51.61C60.72 54.97 62.11 56.77 65.06 57.1L66.54 57.26V59.39H46.71V57.26L48.43 57.1C51.63 56.77 53.18 54.97 53.18 51.61V9.18C53.18 6.8 52.36 5.82 49.41 4.67L46.46 3.44L60.72 0V24.91L58.18 28.35V30.89L59.82 28.68Z" fill="black"/>
<path d="M108.66 20.08V51.63C108.66 54.99 110.22 56.79 113.41 57.12L115.13 57.28V59.41H94.6401V57.28L96.3601 57.12C99.5601 56.79 101.11 54.99 101.11 51.63V29.59C101.11 27.38 100.54 26.72 97.3401 25.17L94.3901 23.78L108.65 20.09L108.66 20.08ZM100.79 4.17999H108.82V12.29H100.79V4.17999Z" fill="black"/>
<path d="M121.11 4.67L118.16 3.44L132.42 0V51.62C132.42 54.98 133.98 56.78 137.17 57.11L138.89 57.27V59.4H118.4V57.27L120.12 57.11C123.32 56.78 124.87 54.98 124.87 51.62V9.1C124.87 6.89 124.05 5.9 121.1 4.67H121.11Z" fill="black"/>
<path d="M180.36 39.91C180.36 51.38 172.17 60.31 161.68 60.31C151.19 60.31 143 51.79 143 40.4C143 29.01 151.11 20 161.68 20C172.25 20 180.36 28.52 180.36 39.91ZM151.19 38.93C151.19 49.83 155.45 56.88 162.01 56.88C168.57 56.88 172.17 50.98 172.17 41.39C172.17 30.49 167.83 23.44 161.19 23.44C154.96 23.44 151.19 29.34 151.19 38.93Z" fill="black"/>
<path d="M52.6299 99.17C52.6299 96.22 54.9199 94.58 56.7299 94.58C58.6999 94.58 60.2499 96.14 60.2499 98.68C60.2499 99.09 60.1699 99.5 60.0899 99.99H58.0399C58.0399 103.1 60.0899 105.32 64.5999 105.32C69.5999 105.32 72.1399 102.04 72.1399 98.68C72.1399 96.47 70.7499 94.66 68.7799 92.78L64.1899 88.19C61.3199 85.32 59.6799 82.54 59.6799 79.34C59.6799 73.6 64.3499 68.28 72.2999 68.28C79.1799 68.28 84.1799 72.21 84.1799 77.21C84.1799 79.91 82.6999 81.72 80.1599 81.72C78.1099 81.72 76.4699 80.16 76.4699 77.54C76.4699 77.13 76.5499 76.72 76.6299 76.23H78.6799C78.6799 73.2 76.1399 71.48 72.4499 71.48C68.3499 71.48 65.9799 74.27 65.9799 77.13C65.9799 78.85 66.7999 80 67.8599 81.06L74.7399 88.11C77.1999 90.57 78.9199 93.52 78.9199 96.88C78.9199 103.03 73.3499 108.35 64.6599 108.35C58.1899 108.35 52.6099 104.5 52.6099 99.17H52.6299Z" fill="black"/>
<path d="M123.11 82.78C123.11 96.14 111.88 108.35 100.17 108.35C91.48 108.35 86.73 101.79 86.73 93.68C86.73 80.32 97.87 68.2 109.59 68.2C118.36 68.2 123.11 74.67 123.11 82.79V82.78ZM115.57 80.32C115.57 74.83 113.36 71.63 109.01 71.63C100.08 71.63 94.26 87.53 94.26 96.13C94.26 101.7 96.47 104.9 100.73 104.9C109.74 104.9 115.56 88.92 115.56 80.32H115.57Z" fill="black"/>
<path d="M134.74 104.33L129.25 118.59C128.02 121.95 128.68 123.75 132.2 124.08L133.92 124.24L133.1 126.37H113.02L113.84 124.24L115.48 124.08C118.68 123.75 120.64 121.87 121.87 118.59L137.6 77.62C138.75 74.67 138.34 73.44 136.13 72.29L133.43 70.9L148.75 67.87L146.78 72.95L142.68 78.6L140.39 84.34H140.72C146.37 75 153.34 68.36 159.32 68.36C165.79 68.36 169.73 73.36 169.73 80.73C169.73 93.92 158.01 107.61 145.64 107.61C141.71 107.61 137.69 106.38 134.74 104.33ZM140.97 88.27L136.38 100.15C138.35 102.69 141.71 104.33 145.15 104.33C154.66 104.33 162.03 90.07 162.03 80.07C162.03 75.07 159.57 73.19 157.11 73.19C153.34 73.19 147.11 77.53 140.97 88.27Z" fill="black"/>
<path d="M205.05 103.18C207.34 103.18 210.29 100.72 213.98 96.87L214.64 97.28C209.23 104.41 204.89 108.01 200.46 108.01C196.28 108.01 194.4 104.57 197.02 98.18L205.21 78.1C206.77 74.33 205.29 72.94 202.92 72.94C198.58 72.94 192.68 78.1 186.2 87.61L178.5 107.52H171.21L190.47 58.11C191.62 55.16 191.21 53.93 188.99 52.78L186.29 51.39L201.45 48.77L190.8 75.81L187.77 79.66L185.97 84.25H186.13C193.18 74.17 200.22 68.27 205.8 68.27C212.77 68.27 214.98 72.78 211.95 79.91L204.17 98.43C202.61 102.2 203.51 103.18 205.07 103.18H205.05Z" fill="black"/>
<path d="M3.31006 156.88C3.31006 147.64 9.65006 140.6 17.9201 140.6C21.8801 140.6 25.0001 142.36 27.1601 145.7V144.16C26.9801 143.9 25.9701 142.8 25.7501 142.62L29.1401 140.73V151.51H27.6401L26.7601 149.49C24.8701 144.96 21.8801 142.67 18.0001 142.67C12.2801 142.67 8.45006 148.13 8.45006 156.27C8.45006 164.41 12.5901 169.91 18.6601 169.91C23.1501 169.91 26.3601 167.8 29.2701 162.91L29.4501 163C27.7301 168.72 23.2901 172.29 17.8301 172.29C9.51006 172.29 3.31006 165.73 3.31006 156.89V156.88Z" fill="black"/>
<path d="M52.5502 161.37C52.5502 167.53 48.1502 172.33 42.5202 172.33C36.8902 172.33 32.4902 167.75 32.4902 161.64C32.4902 155.53 36.8502 150.68 42.5202 150.68C48.1902 150.68 52.5502 155.26 52.5502 161.37ZM36.8802 160.84C36.8802 166.69 39.1702 170.48 42.6902 170.48C46.2102 170.48 48.1502 167.31 48.1502 162.16C48.1502 156.31 45.8202 152.52 42.2502 152.52C38.9102 152.52 36.8802 155.69 36.8802 160.84Z" fill="black"/>
<path d="M56.3798 153.45L54.7998 152.7L62.4598 150.72V153.32L61.0998 155.17V156.53L61.9798 155.34C64.0898 152.35 66.7298 150.67 69.3698 150.67C73.1998 150.67 75.4398 153.09 75.4398 157.23V167.66C75.4398 169.46 76.2798 170.43 77.9898 170.61L78.9098 170.7V171.84H68.2598V170.7L69.0498 170.61C70.6298 170.43 71.3798 169.47 71.3798 167.66V157.54C71.3798 154.94 69.9298 153.45 67.4198 153.45C65.6198 153.45 63.7698 154.51 62.4498 156.27V167.67C62.4498 169.47 63.1998 170.44 64.7798 170.62L65.5698 170.71V171.85H54.9198V170.71L55.8398 170.62C57.5598 170.44 58.3898 169.48 58.3898 167.67V155.83C58.3898 154.64 58.0798 154.29 56.3698 153.45H56.3798Z" fill="black"/>
<path d="M96.1601 156.48C97.2601 154.1 96.6901 152.7 94.5301 152.39L93.8701 152.3V151.16H102.19V152.26C100.69 152.66 99.5501 153.8 98.6701 155.65L90.4001 173.12H90.3101L81.9901 155.3C81.1101 153.45 80.2301 152.62 78.6001 152.26V151.16H88.6301V152.3L87.9701 152.39C86.3001 152.65 85.7301 153.71 86.3901 155.25L91.0101 165.59L90.3501 167L90.7901 167.92L96.1601 156.48Z" fill="black"/>
<path d="M105.71 160.14V160.98H107.12C107.25 166.04 109.98 169.56 113.76 169.56C116.8 169.56 118.95 168.37 120.32 165.91L120.41 165.95C119.66 169.78 116.67 172.29 112.97 172.29C106.9 172.29 102.85 168.07 102.85 161.77C102.85 155.47 107.21 150.72 112.44 150.72C117.67 150.72 120.98 154.59 120.8 160.14H105.71ZM107.21 158.6H116.5C116.5 155.04 114.7 152.48 112.14 152.48C109.41 152.48 107.61 154.68 107.21 158.6Z" fill="black"/>
<path d="M124.85 153.45L123.27 152.7L130.93 150.72V153.32L129.57 155.17V156.53L130.45 155.34C132.56 152.35 135.2 150.67 137.84 150.67C141.67 150.67 143.91 153.09 143.91 157.23V167.66C143.91 169.46 144.75 170.43 146.46 170.61L147.38 170.7V171.84H136.73V170.7L137.52 170.61C139.1 170.43 139.85 169.47 139.85 167.66V157.54C139.85 154.94 138.4 153.45 135.89 153.45C134.09 153.45 132.24 154.51 130.92 156.27V167.67C130.92 169.47 131.67 170.44 133.25 170.62L134.04 170.71V171.85H123.39V170.71L124.31 170.62C126.03 170.44 126.86 169.48 126.86 167.67V155.83C126.86 154.64 126.55 154.29 124.84 153.45H124.85Z" fill="black"/>
<path d="M155.3 167.13C155.3 168.49 156.22 169.33 157.59 169.33C159.22 169.33 160.36 168.41 161.2 166.47L161.33 166.51C160.54 170.25 158.6 172.19 155.61 172.19C153.15 172.19 151.25 170.47 151.25 167.83V152.91H147.6C150.37 151.11 153.63 147.28 155.3 143.8V151.15H161.11V152.91H153.81V153.75H155.31V167.13H155.3Z" fill="black"/>
<path d="M170.65 150.72V167.66C170.65 169.46 171.49 170.43 173.2 170.61L174.12 170.7V171.84H163.12V170.7L164.04 170.61C165.76 170.43 166.59 169.47 166.59 167.66V155.82C166.59 154.63 166.28 154.28 164.57 153.44L162.99 152.69L170.65 150.71V150.72ZM166.43 142.18H170.74V146.54H166.43V142.18Z" fill="black"/>
<path d="M196.39 161.37C196.39 167.53 191.99 172.33 186.36 172.33C180.73 172.33 176.33 167.75 176.33 161.64C176.33 155.53 180.69 150.68 186.36 150.68C192.03 150.68 196.39 155.26 196.39 161.37ZM180.72 160.84C180.72 166.69 183.01 170.48 186.53 170.48C190.05 170.48 191.99 167.31 191.99 162.16C191.99 156.31 189.66 152.52 186.09 152.52C182.75 152.52 180.72 155.69 180.72 160.84Z" fill="black"/>
<path d="M200.22 153.45L198.64 152.7L206.3 150.72V153.32L204.94 155.17V156.53L205.82 155.34C207.93 152.35 210.57 150.67 213.21 150.67C217.04 150.67 219.28 153.09 219.28 157.23V167.66C219.28 169.46 220.12 170.43 221.83 170.61L222.75 170.7V171.84H212.1V170.7L212.89 170.61C214.47 170.43 215.22 169.47 215.22 167.66V157.54C215.22 154.94 213.77 153.45 211.26 153.45C209.46 153.45 207.61 154.51 206.29 156.27V167.67C206.29 169.47 207.04 170.44 208.62 170.62L209.41 170.71V171.85H198.76V170.71L199.68 170.62C201.4 170.44 202.23 169.48 202.23 167.67V155.83C202.23 154.64 201.92 154.29 200.21 153.45H200.22Z" fill="black"/>
<path d="M238.63 160.14V160.98H240.04C240.17 166.04 242.9 169.56 246.68 169.56C249.72 169.56 251.87 168.37 253.24 165.91L253.33 165.95C252.58 169.78 249.59 172.29 245.89 172.29C239.82 172.29 235.77 168.07 235.77 161.77C235.77 155.47 240.13 150.72 245.36 150.72C250.59 150.72 253.9 154.59 253.72 160.14H238.63ZM240.13 158.6H249.42C249.42 155.04 247.62 152.48 245.06 152.48C242.33 152.48 240.53 154.68 240.13 158.6ZM241.93 148.3L249.54 144.21C251.7 143.07 251.26 140.16 248.84 140.16C247.61 140.16 246.9 140.78 245.85 142.32L241.76 148.31H241.94L241.93 148.3Z" fill="black"/>
<path d="M262.92 167.13C262.92 168.49 263.84 169.33 265.21 169.33C266.84 169.33 267.98 168.41 268.82 166.47L268.95 166.51C268.16 170.25 266.22 172.19 263.23 172.19C260.77 172.19 258.87 170.47 258.87 167.83V152.91H255.22C257.99 151.11 261.25 147.28 262.92 143.8V151.15H268.73V152.91H261.43V153.75H262.93V167.13H262.92Z" fill="black"/>
<path d="M277.93 165.42C277.93 167.8 279.16 169.51 281.89 169.51C284.09 169.51 285.85 168.1 286.86 166.65V155.82C286.86 154.63 286.55 154.28 284.84 153.44L283.26 152.69L290.92 150.71V167.52C290.92 169.06 291.49 169.68 292.9 170.29L294.57 171.04L286.87 172.1V169.64L288.23 167.75V166.39L287.39 167.58C285.89 169.74 283.47 172.29 279.95 172.29C276.03 172.29 273.88 169.74 273.88 165.73V155.83C273.88 154.64 273.57 154.29 271.86 153.45L270.28 152.7L277.94 150.72V165.42H277.93Z" fill="black"/>
<path d="M296.72 162.34C296.72 155.65 301.25 150.72 307.41 150.72C309.21 150.72 310.71 151.03 311.94 151.64V144.82C311.94 143.63 311.5 143.1 309.92 142.44L308.34 141.78L316 139.93V167.52C316 169.06 316.57 169.68 317.98 170.29L319.65 171.04L311.95 172.1V169.55L313.31 167.44V166.12L312.56 167.26C310.4 170.65 308.03 172.28 305.25 172.28C300.28 172.28 296.71 168.1 296.71 162.33L296.72 162.34ZM307.15 169.51C308.87 169.51 310.89 168.15 311.95 166.47V154.32C310.81 153.26 309.05 152.47 307.5 152.47C303.67 152.47 301.12 156.04 301.12 161.32C301.12 166.12 303.58 169.51 307.15 169.51Z" fill="black"/>
<path d="M328.93 150.72V167.66C328.93 169.46 329.77 170.43 331.48 170.61L332.4 170.7V171.84H321.4V170.7L322.32 170.61C324.04 170.43 324.87 169.47 324.87 167.66V155.82C324.87 154.63 324.56 154.28 322.85 153.44L321.27 152.69L328.93 150.71V150.72ZM324.71 142.18H329.02V146.54H324.71V142.18Z" fill="black"/>
<path d="M347.8 167.66V166.47L347.36 167.13C344.68 171.18 342.78 172.28 340.19 172.28C336.54 172.28 334.34 170.3 334.34 167.04C334.34 164.18 335.79 162.68 339.93 161.28L346.71 158.99V156.97C346.71 154.24 345.08 152.44 342.62 152.44C340.33 152.44 338.35 153.41 338.13 154.77H339.49C339.8 157.15 338.74 158.2 337.25 158.2C336.15 158.2 335.18 157.23 335.18 155.91C335.18 153.45 338.44 150.72 343.01 150.72C347.98 150.72 350.71 152.96 350.71 157.06V168.24C350.71 169.16 351.28 169.74 352.12 169.74C353 169.74 353.62 169.52 354.32 168.86L354.41 168.9C353.66 170.7 351.68 172.11 350.01 172.11C348.03 172.11 346.84 171.05 346.8 169.25L347.81 167.67L347.8 167.66ZM341.68 169.95C343.53 169.95 345.46 168.45 346.7 166.3V160.4L342.17 161.98C339.4 162.99 338.34 164.18 338.34 166.47C338.34 168.54 339.66 169.95 341.68 169.95Z" fill="black"/>
<path d="M357.39 153.45L355.81 152.7L363.47 150.72V153.32L362.11 155.17V156.53L362.99 155.34C365.1 152.35 367.74 150.67 370.38 150.67C374.21 150.67 376.45 153.09 376.45 157.23V167.66C376.45 169.46 377.29 170.43 379 170.61L379.92 170.7V171.84H369.27V170.7L370.06 170.61C371.64 170.43 372.39 169.47 372.39 167.66V157.54C372.39 154.94 370.94 153.45 368.43 153.45C366.63 153.45 364.78 154.51 363.46 156.27V167.67C363.46 169.47 364.21 170.44 365.79 170.62L366.58 170.71V171.85H355.93V170.71L356.85 170.62C358.57 170.44 359.4 169.48 359.4 167.67V155.83C359.4 154.64 359.09 154.29 357.38 153.45H357.39Z" fill="black"/>
<path d="M387.84 167.13C387.84 168.49 388.76 169.33 390.13 169.33C391.76 169.33 392.9 168.41 393.74 166.47L393.87 166.51C393.08 170.25 391.14 172.19 388.15 172.19C385.69 172.19 383.79 170.47 383.79 167.83V152.91H380.14C382.91 151.11 386.17 147.28 387.84 143.8V151.15H393.65V152.91H386.35V153.75H387.85V167.13H387.84Z" fill="black"/>
<path d="M398.36 160.14V160.98H399.77C399.9 166.04 402.63 169.56 406.41 169.56C409.45 169.56 411.6 168.37 412.97 165.91L413.06 165.95C412.31 169.78 409.32 172.29 405.62 172.29C399.55 172.29 395.5 168.07 395.5 161.77C395.5 155.47 399.86 150.72 405.09 150.72C410.32 150.72 413.63 154.59 413.45 160.14H398.36ZM399.86 158.6H409.15C409.15 155.04 407.35 152.48 404.79 152.48C402.06 152.48 400.26 154.68 399.86 158.6Z" fill="black"/>
</g>
<defs>
<clipPath id="clip0_373_218">
<rect width="413.46" height="173.12" fill="white"/>
</clipPath>
</defs>
</svg>
